<svg width="143" height="47" viewBox="0 0 143 47" fill="none" xmlns="http://www.w3.org/2000/svg">
<path d="M54.9135 40.8461C49.5925 37.4184 42.3712 36.8169 30.7252 40.048C18.3098 42.9656 14.1703 44.8358 8.73395 41.0814C6.64543 39.237 5.89665 36.2675 6.45578 31.99C7.75261 25.0169 11.2572 18.3065 17.4823 10.863C20.9569 6.99087 24.1801 3.6679 28.436 2.33353C31.6978 1.49645 31.3929 4.0599 30.9982 4.42652C30.5817 4.42652 29.8821 4.49212 29.3413 4.84497C28.9025 5.18531 27.6979 6.28427 27.6332 7.76253C27.5399 10.0255 29.8817 9.5545 30.8918 8.31201C31.9806 6.91186 33.5897 4.23061 32.324 1.73168C31.7934 0.842221 30.8768 0.227499 29.7387 0.0181825C25.8416 -0.20454 22.2122 1.65321 18.8625 3.70705C11.5369 8.79589 5.67697 15.8472 2.36115 23.5657C0.449597 28.2226 -1.27927 34.8936 1.31207 40.3231C3.31693 44.0905 7.47877 46.0916 12.4443 45.6731C15.9269 45.3072 20.138 44.1816 22.9703 43.502C25.8028 42.8211 40.3009 37.8376 45.0646 46.5114C45.0646 46.5114 46.6486 43.4364 50.6074 43.3708C53.8621 43.0705 58.5575 44.313 61.9766 46.8243C60.8375 45.1111 57.6078 42.5863 54.9135 40.8461V40.8461Z" fill="#BBBBBB"/>
<path d="M32.2036 11.7393C29.492 9.96015 24.0419 13.3614 19.6766 19.1956C15.6848 24.4289 13.9611 30.5112 15.8371 33.3239C18.6274 36.6334 23.8077 31.8195 26.0106 29.2428L26.2949 28.9416C27.793 27.3325 28.9502 25.3963 30.0706 23.5384C30.0706 23.5384 31.1002 21.8377 31.1493 21.7591C31.7857 21.6418 32.5522 21.4586 33.4159 21.21C33.4036 21.2489 30.1113 26.7827 30.4472 29.5294C30.5518 30.3673 30.4721 33.4284 33.4606 34.357C37.4439 35.0247 40.6245 31.9369 43.4306 29.1897C43.4306 29.1897 43.9087 28.7323 44.1792 28.4712C44.1107 28.745 44.0215 29.1105 44.0215 29.1105C42.8553 33.166 44.4273 34.0171 45.4106 34.3309C48.3823 35.195 51.9324 30.8777 51.9441 30.8777C51.8518 32.2376 51.5828 33.3625 53.0164 34.2653C54.3693 34.7498 55.7387 34.0112 56.7798 33.3178C60.5291 30.6755 63.5496 26.5396 65.9892 22.9648H64.433C64.4146 22.9648 60.5931 28.5039 58.1115 29.7078C58.1075 29.7078 57.6558 29.9396 57.3958 29.7562C57.0735 29.4815 57.2006 28.91 57.3995 28.5053C57.412 28.479 66.9812 11.8823 66.9812 11.8823H62.4632C62.4632 11.8823 61.9696 12.6807 61.9294 12.7331C61.899 12.707 61.8266 12.5697 61.7766 12.5039C58.9773 8.63186 52.6383 14.5878 47.8659 21.4947C46.0285 24.1506 43.6892 27.1409 41.2636 29.2993C41.2636 29.2993 37.67 32.5933 36.1347 30.2267C35.5734 29.2323 35.7461 27.7785 36.0626 26.8238C37.8503 21.7348 40.9307 17.1164 44.4362 14.3299C45.4256 13.5586 46.5013 13.3355 47.0349 13.6626C47.5436 13.964 47.6256 14.709 47.3039 15.2193C46.4875 15.1932 45.8333 15.4413 45.3017 15.9908C44.2542 17.0898 43.8903 18.1496 44.2233 19.144C45.8412 21.4463 49.0678 16.8937 48.9117 14.1204C48.856 13.126 48.3256 12.1843 47.5338 11.726C46.3538 11.02 44.5538 11.2028 43.3889 11.7657C41.8293 12.3542 39.3609 14.4078 37.92 16.0041C36.1061 18.0059 32.9949 20.2295 32.0222 19.9805C32.3402 19.13 34.968 13.7536 32.2036 11.7393V11.7393ZM53.9863 19.6929C54.8652 18.4765 57.4233 15.219 58.047 14.6697C60.1444 12.8244 60.9827 13.6363 61.0553 14.2115C59.0978 17.7174 56.7875 21.7337 54.6153 25.3445C54.6198 25.3316 53.9355 26.3778 53.9355 26.3778C52.9762 27.8425 52.0102 29.0986 50.4345 29.9748C50.2098 30.0408 49.8395 30.067 49.593 29.8831C49.2962 29.6868 49.1792 29.3597 49.2126 29.0196C49.3071 27.8949 50.4522 24.455 53.9863 19.6929V19.6929ZM29.4072 21.799C29.4072 21.799 29.3677 21.9171 29.3484 21.9557C29.3434 21.9557 27.3784 25.1603 27.3784 25.1603C26.1926 26.7435 24.712 28.7325 22.8612 29.687C22.3127 29.8701 21.5542 29.9882 21.1678 29.5045C20.3485 28.5232 20.7708 27.1625 21.1138 26.0639L21.2353 25.6714C22.2188 23.003 23.7791 20.6478 25.2981 18.4631C25.3171 18.4502 25.3596 18.4372 25.375 18.4372C25.3788 18.4502 25.3848 18.4502 25.3873 18.4765C26.3404 20.3076 28.1276 21.1576 29.4641 21.5507C29.4721 21.5507 29.4809 21.5637 29.4809 21.59C29.4811 21.629 29.4593 21.6817 29.4072 21.799V21.799ZM31.2687 18.0187C31.26 18.0448 30.3936 20.0333 30.3936 20.0333C30.2683 20.1378 30.0702 20.0856 29.8432 20.0333L29.4543 19.9675C28.2329 19.5884 27.3116 18.7772 27.0275 17.8093C26.6359 15.9254 28.2452 14.4471 28.9541 13.9111C29.6344 13.4397 30.6921 13.1912 31.3063 13.6755C31.6851 14.1204 31.8286 14.6958 31.8286 15.3241C31.8288 16.174 31.5664 17.1289 31.2687 18.0187ZM88.3866 24.0882C87.9508 23.1465 86.9167 22.5447 85.8145 22.6099C82.2354 22.9372 78.7346 25.8805 76.8963 30.1056C75.9318 32.2775 75.4054 34.0694 75.0602 36.9212C76.1733 35.6396 78.4434 33.5335 81.0196 32.3822C81.0196 32.3822 81.3701 29.6482 83.1576 27.2149C83.834 26.2073 85.1875 24.5853 86.7074 25.0168C88.0355 25.4617 87.5686 29.1379 85.8036 32.6954C84.4977 35.3121 82.4993 37.9292 80.4772 39.734C78.6896 41.2514 76.0446 43.0829 73.7305 41.6702C72.273 40.8072 71.5295 39.0013 71.6865 36.6729C72.3829 30.0669 75.3902 24.4416 79.6936 18.0316C84.1309 12.0794 89.0222 5.97027 95.6115 2.71237C96.9555 2.03223 98.2001 1.87528 99.276 2.29392C99.276 2.29392 93.0906 5.69518 90.1421 11.9877C89.392 13.584 88.3488 15.7418 89.3994 17.6519C89.9483 18.646 90.9229 18.7246 91.7077 18.6723C95.3219 17.8348 97.6569 14.4598 99.5647 11.3728C100.671 9.03119 101.654 6.70261 101.654 4.11234C101.654 3.79846 101.638 3.38 101.611 3.06576C103.338 2.15038 106.879 3.77218 106.879 3.77218C109.645 4.68828 115.537 9.20172 117.524 10.0647C118.494 8.93985 120.087 7.2394 120.984 6.3889L119.685 5.59078C117.606 4.32184 115.409 3.11813 113.246 1.92784C108.334 -0.753594 104.336 0.188062 102.301 0.920759C101.502 1.20837 100.771 1.45701 100.771 1.45701C99.2608 -0.191246 96.7841 -0.0346605 94.9592 0.410427C88.3966 2.2941 82.3035 6.88565 75.7711 14.8527C70.9684 21.0929 67.9894 26.4827 66.4016 31.8068C65.1777 35.3911 64.8057 40.663 67.7929 43.7897C70.3328 46.4447 73.7006 45.8694 76.0787 44.9149C81.2316 42.377 85.8628 36.9085 88.1705 30.616C88.7274 28.7455 89.3454 26.1031 88.3866 24.0882V24.0882ZM100.235 4.37421C99.5533 12.1972 93.4724 16.7893 91.9677 17.155C91.0558 17.3379 89.5 16.9327 90.8891 13.6496C92.9343 9.22746 96.4266 5.47335 100.173 3.55017C100.265 3.87729 100.262 4.08607 100.235 4.37421V4.37421ZM136.307 5.36806C133.036 7.22599 129.645 8.42916 125.54 8.0107C124.403 9.29306 123.295 10.6142 122.275 11.9745C128.035 13.4397 134.143 10.1823 137.549 7.08228C141.153 3.95558 143 0.0182495 143 0.0182495C143 0.0182495 140.299 3.10526 136.307 5.36806ZM74.4904 11.8826H70.1996L67.7794 15.8151H72.0692L74.4904 11.8826Z" fill="#BBBBBB"/>
<path d="M125.523 41.2103C125.062 41.5242 124.414 41.2828 124.656 40.5636C125.26 38.7321 127.66 34.9998 127.66 34.9998L134.344 23.144H129.765C129.548 23.5015 129.082 24.3223 129.082 24.3223C128.871 23.9695 128.237 23.1849 127.976 23.0153C126.858 22.3083 125.217 22.6426 124.084 23.2834C119.162 26.1618 115.57 31.8488 112.737 36.2837C112.737 36.2837 109.756 41.2137 108.101 41.5803C106.809 41.685 106.942 39.9444 106.998 39.5388C107.497 36.608 108.658 33.8218 109.827 31.297C112.204 29.6487 114.918 27.4903 117.383 25.1226C122.735 20.0071 127.246 14.2119 127.906 12.9168C127.906 12.9168 127.192 13.0609 126.349 13.0868C122.232 18.8297 113.807 27.1762 111.253 28.4187C112.385 25.6971 119.695 12.7073 125.916 6.4936L126.895 5.55141C128.409 4.07314 129.977 2.55573 131.199 2.30709C131.329 2.29404 131.495 2.30709 131.638 2.60846C131.693 3.75944 131.264 4.60993 130.773 5.57786L130.084 6.99088C130.084 6.99088 131.06 6.80766 131.701 6.59781C132.444 5.19873 133.268 3.62841 132.964 1.75815C132.863 1.1563 132.427 0.698519 131.858 0.593772C130.002 0.240562 127.98 1.61372 126.352 2.72608L126.287 2.76505C117.921 9.3191 110.857 18.7643 104.68 31.663C104.233 32.0027 102.503 32.4086 102.21 32.2122C102.82 30.9566 103.587 29.2687 103.972 27.4372C104.038 26.9137 104.1 26.3778 104.1 25.8546C104.1 24.7286 103.83 23.6693 102.821 22.9372C101.639 22.3484 100.177 22.6233 99.1912 23.0677C94.7767 24.8991 91.4771 29.4258 89.096 33.1536C87.8154 35.5221 86.5386 38.0587 86.185 40.9634C85.936 43.2393 86.443 44.7047 87.7371 45.4374C89.0677 46.1171 90.7426 45.4105 91.4006 45.0707C95.8731 42.7159 98.9982 37.9937 101.461 33.6765C101.559 33.6636 102.904 33.6247 103.922 33.3626C103.935 33.3626 103.941 33.3626 103.963 33.3762C103.905 33.5717 103.379 35.1421 103.379 35.1421C101.818 39.7202 101.096 42.834 102.571 44.6784C104.678 47.2817 108.167 44.5872 111.005 41.0283C110.396 45.2927 112.606 45.9604 114.291 45.6336C116.226 45.1106 118.383 43.0432 119.384 41.9839C119.062 43.2264 119.149 45.4508 120.91 45.6728C122.117 45.8958 123.02 45.2395 124.065 44.6768C127.813 42.6358 132.3 35.8349 133.465 33.8686H131.937C130.281 36.3717 128.174 39.6528 125.523 41.2103V41.2103ZM91.8791 40.7548C91.6414 40.4014 91.5626 40.0153 91.5547 39.5978C91.5091 37.0325 94.269 32.439 96.2168 29.9365H96.221C97.0371 31.724 98.8858 32.873 100.002 33.3572C98.6159 36.4448 93.8624 43.0571 91.8791 40.7548V40.7548ZM100.784 31.9769C100.652 32.0692 98.3211 31.2837 97.8705 29.1253C97.4883 27.267 98.768 25.8151 100.006 25.0833C100.537 24.6643 101.338 24.5209 101.925 24.7293C102.47 25.0963 102.618 25.7509 102.618 26.4561C102.618 26.8886 102.56 27.333 102.51 27.7384L102.499 27.8303C102.108 29.2806 101.532 30.6744 100.784 31.9769V31.9769ZM119.481 39.9308C119.479 39.9308 119.038 40.3231 119.038 40.3231C118.41 40.8855 117.762 41.4872 116.981 41.1861C116.766 41.1078 116.614 40.8202 116.577 40.5972C116.542 38.988 117.266 37.4971 117.969 36.0451L118.149 35.6656C120.171 32.2906 122.52 28.3138 125.971 25.5539C126.552 25.1344 127.183 24.7819 127.849 25.0568C128.002 25.2005 128.181 25.4492 128.181 25.6974C128.181 25.7763 128.111 25.9854 128.07 26.0507C127.107 27.6081 126.189 29.243 125.296 30.8127C123.552 33.9132 121.743 37.1176 119.481 39.9308V39.9308Z" fill="#BBBBBB"/>
</svg>
