<svg width="124" height="74" viewBox="0 0 124 74" fill="none" xmlns="http://www.w3.org/2000/svg">
<path fill-rule="evenodd" clip-rule="evenodd" d="M49.8189 20.0292C50.3392 20.0292 50.7585 19.6064 50.7585 19.0868C50.7619 18.9611 50.7401 18.8361 50.6943 18.719C50.6485 18.602 50.5798 18.4952 50.4921 18.4052C50.4044 18.3151 50.2996 18.2435 50.1838 18.1947C50.068 18.1458 49.9436 18.1206 49.8179 18.1206C49.6922 18.1206 49.5677 18.1458 49.4519 18.1947C49.3361 18.2435 49.2313 18.3151 49.1436 18.4052C49.0559 18.4952 48.9872 18.602 48.9414 18.719C48.8957 18.8361 48.8738 18.9611 48.8772 19.0868C48.8772 19.6064 49.2959 20.0292 49.8189 20.0292ZM61.1933 39.3403C62.5907 39.3403 63.531 39.1518 64.2883 38.8725C65.0415 38.5925 65.6204 38.2552 66.0417 37.9099C66.4416 37.5828 66.6953 37.2509 67.1221 37.0329C67.4984 36.8383 68.0281 36.7925 68.6225 36.7925C69.476 36.7925 70.4365 37.0564 71.1386 37.4428L71.2396 36.1363C70.7718 35.9054 69.1226 35.3272 67.6902 35.3272C66.0626 35.3272 65.4474 35.766 64.8463 36.3086C64.1469 36.9427 63.2631 37.6966 60.8735 37.6966C60.2368 37.6966 58.7088 37.5242 58.0882 37.5242C57.7112 37.5242 57.4218 37.6185 57.4218 37.6185C57.5355 37.9759 57.7792 38.9607 57.7792 38.9607C58.3513 39.032 59.3496 39.3403 61.1933 39.3403ZM53.8468 35.4658C54.3308 35.4658 55.7383 35.6806 57.3639 35.8367C58.2874 35.9236 59.2755 35.9922 60.2085 35.9922C62.0347 35.9922 64.0345 35.1239 65.8028 34.2172L65.4568 32.9591C64.6309 33.4115 63.0591 33.9143 61.7493 34.123C61.4268 34.1755 60.4905 34.1882 60.224 34.1458C59.7824 34.0772 59.2527 33.9183 58.6832 33.8147C57.8835 33.6646 57.0098 33.6289 56.4922 33.606C55.9207 33.5804 54.8962 33.6773 54.3927 33.7103C52.543 33.8207 51.3206 34.2562 50.1507 35.0458C49.5597 35.4456 48.8051 36.0986 48.2229 36.8888C48.5224 36.911 49.3766 37.1493 49.3766 37.1493C50.6381 36.0763 52.5336 35.4658 53.8468 35.4658Z" fill="#BBBBBB"/>
<path fill-rule="evenodd" clip-rule="evenodd" d="M31.5575 36.0737C32.4581 36.0737 32.8196 36.3658 33.3163 36.6647C33.6643 36.8794 33.9376 37.1164 34.1974 37.3513C34.7534 37.8481 34.5946 38.3038 34.1584 38.6477C33.9342 38.8261 33.7424 39.0408 33.177 39.4084C32.9044 39.5881 32.4332 39.8768 32.1114 40.0128C31.5453 40.2471 31.299 40.2733 31.0937 40.2733C30.8857 40.2733 30.5545 40.241 30.3687 40.0559L28.9289 40.9363C29.3611 41.2736 29.8518 41.388 30.6777 41.388C31.6106 41.388 32.3551 41.1867 33.2746 40.8266C34.4667 40.3548 35.8069 39.4279 36.2518 39.1741C37.1625 38.6538 38.082 38.3159 39.0668 38.3159C39.9344 38.3159 40.9125 38.8295 42.0083 39.3532C43.3021 39.9738 44.8819 40.5816 46.3345 40.5816C47.2055 40.5816 48.1808 40.4544 49.202 40.2464C51.0153 39.8762 52.9654 39.265 54.8737 38.6181L54.2537 37.5041C53.7886 37.6757 52.1953 38.124 50.4822 38.505C49.0619 38.8167 47.6215 39.0987 46.8743 39.0987C46.2638 39.0987 45.5449 39.0543 44.9014 38.8557C43.8089 38.5272 42.8275 38.1826 42.8275 37.3048C42.8275 36.6977 43.0873 36.2682 43.8224 35.9727C45.0118 35.4948 46.8649 35.5244 47.8396 35.5244C48.022 35.3292 48.7597 34.4421 48.7597 34.4421C47.9785 34.2848 47.1838 34.2043 46.387 34.2018C45.1653 34.2018 44.0364 34.3579 43.1008 34.751C42.2331 35.1159 41.5506 35.6422 41.0565 36.3537C40.858 36.6364 40.6533 36.9057 40.3551 36.9057C39.8604 36.9057 39.0022 36.5025 38.1056 36.5025C37.7152 36.5025 37.384 36.5833 37.0393 36.5833C36.132 36.5833 34.9493 35.9236 33.8959 35.3616C33.2329 35.0075 32.5503 34.6756 31.7574 34.6756C31.4289 34.6756 30.9779 34.7571 30.5774 34.926C29.8073 35.2478 29.0265 35.7681 28.6334 36.0959L29.3389 36.5806C29.7501 36.3658 30.4986 36.0737 31.5575 36.0737V36.0737ZM95.24 46.1921C91.8495 43.3326 88.5694 40.204 86.2566 37.6461C82.2623 33.2358 76.8208 24.8198 74.9623 20.0575C74.2757 18.3054 72.8588 18.9004 73.5844 20.6821C75.3392 24.9861 79.386 31.3147 83.6112 36.5321C82.6264 36.0959 81.4054 35.5103 80.7451 35.2189C80.5202 35.5864 79.9642 36.314 79.3921 36.9117C78.7297 37.601 78.0472 38.1597 77.8358 38.3549C77.3707 38.7877 77.0301 38.82 76.7171 38.3394C76.5751 38.1112 76.2728 37.7027 76.116 36.9932L75.2181 35.8563C74.7368 35.2518 72.4825 32.1676 71.7919 31.1303C71.1033 30.0971 70.21 28.9911 68.7628 28.9911C66.9723 28.9911 66.3544 30.9742 66.2151 32.7842L67.4038 32.2672C67.6811 31.1458 68.2311 30.5609 68.7635 30.5609C69.1431 30.5609 69.6089 31.1135 69.6089 31.5261C69.4366 32.0108 69.1236 33.0117 68.9715 33.7851L70.1427 34.1822C70.1427 33.6128 70.3817 32.5789 70.7108 32.0431C70.7108 32.0431 71.0353 32.319 71.1565 32.5439C71.2339 32.6893 71.8127 33.5737 72.4832 34.7504C73.0816 35.8004 73.7466 37.0975 74.3578 38.1308C74.6533 38.6282 74.9926 39.0738 75.2187 39.4245C75.521 39.8869 75.7922 40.2107 76.0797 40.3743C76.3489 40.523 76.6397 40.5271 76.8739 40.5271C77.6312 40.5271 77.9785 40.276 78.4921 39.8385C79.4547 39.0085 80.284 37.8555 81.1415 36.8215L83.1636 37.7343C83.9454 38.1062 84.7345 38.4628 85.5303 38.8039C87.2541 40.7613 89.184 42.679 91.2087 44.5025L92.5839 45.7148C92.9588 46.0393 93.3344 46.3576 93.7161 46.6733L95.24 46.1921V46.1921Z" fill="#BBBBBB"/>
<path fill-rule="evenodd" clip-rule="evenodd" d="M102.829 45.6045C99.3661 38.0238 94.803 28.7011 90.8996 22.9904L89.9882 21.7094C88.685 19.9519 87.2748 18.4946 85.8929 17.081L84.8199 16.0249C82.1153 13.4045 79.0802 10.7847 76.7674 8.91811C74.7272 7.27435 73.2766 3.48334 68.6031 3.48334C64.3907 3.48334 62.9503 6.34679 62.4791 8.02488C62.1661 9.12611 62.0308 9.50642 61.7373 9.91971L59.0616 13.1056L62.2179 12.8518L60.6186 15.5073C61.5354 15.3161 67.0704 14.2041 68.2087 15.9919C69.5906 18.154 68.6476 20.5005 71.231 25.419L72.3484 27.363C73.634 29.4308 75.1566 31.4616 76.5096 33.0643L75.2159 35.8564L76.1138 36.9933L78.1251 32.752C77.0986 31.8352 74.0258 27.7036 72.7556 25.4055C69.8686 20.1787 71.0028 17.4903 69.2412 15.0947C67.6096 12.8713 62.9429 13.9214 62.9429 13.9214L64.664 11.5069L61.6848 11.8704L63.0627 10.2132C63.3562 9.78442 63.4241 9.52459 63.544 9.11062C64.1289 6.98895 65.6629 4.88545 68.5755 4.88545C72.1121 4.88545 73.1231 7.60014 75.5814 9.76153C78.0699 11.9525 83.2879 16.1649 88.0617 21.6125C91.9113 26.0039 96.8452 36.2138 100.636 44.2724C96.4918 42.253 89.4739 35.3105 86.5344 30.1093L85.1471 29.9471C88.3033 35.9345 95.077 42.906 101.777 46.7017L102.829 45.6045Z" fill="#BBBBBB"/>
<path fill-rule="evenodd" clip-rule="evenodd" d="M93.2333 20.5784C94.3379 19.7848 95.6458 19.1379 97.0236 18.6149C97.8718 19.6421 99.8709 20.542 101.457 20.7534L101.203 22.4315C99.4442 21.5436 96.335 20.6396 93.2333 20.5784L91.8426 21.7739C96.051 21.8519 98.73 22.7041 102.199 24.1634L102.887 19.733C101.512 19.5445 99.3439 19.1514 98.5934 18.0852C101.766 17.1192 105.058 16.7551 107.002 16.782V11.3237C106.134 11.8312 105.042 12.3057 104.011 12.6248C102.751 13.0112 101.604 13.1808 101.289 12.6248C100.94 12.0136 102.679 10.9245 104.472 9.97203L100.437 6.62057C99.8258 7.44312 98.4372 9.74452 97.0216 11.2651C96.016 12.3448 94.98 13.0529 94.3884 12.6113C94.0781 12.3771 94.0659 11.7013 94.3224 10.8498C94.8131 9.2141 96.1035 6.94232 96.8897 5.94139L91.3129 5.41434C91.3129 7.69352 90.2426 10.2029 88.9253 12.231C87.7891 13.9764 86.1406 15.2453 84.8206 16.0247L85.8936 17.0809C87.5252 15.9467 89.1145 14.5587 90.3436 12.5817C91.3324 10.9925 92.2512 9.0714 92.5959 6.82183L94.527 7.04598C93.724 8.51809 92.8166 10.804 92.748 12.299C92.7964 13.3161 92.9923 13.4978 93.516 13.8849C94.4846 14.6098 95.6841 14.1225 96.8278 13.1438C98.0885 12.0675 99.3284 10.2635 100.586 8.63118L102.217 9.99088C100.15 11.2644 99.5653 12.6268 100.196 13.5301C100.442 13.8808 100.973 14.1447 101.632 14.1642C102.285 14.1804 103.06 13.9879 103.905 13.7866C104.499 13.6432 105.143 13.4359 105.738 13.2535V15.425C101.041 15.7602 93.026 17.6611 89.9895 21.7079L90.9009 22.9888C91.1641 22.5567 91.4818 22.1528 91.8433 21.7725L93.2333 20.5784ZM31.8212 9.91011L32.4519 10.384C34.1037 9.03842 36.0342 6.59095 37.1233 4.28619L36.5606 3.88635C35.5072 4.85228 32.9944 8.00114 31.8212 9.91011Z" fill="#BBBBBB"/>
<path fill-rule="evenodd" clip-rule="evenodd" d="M30.8524 8.43738C29.9262 5.16804 32.3016 3.21061 34.7821 3.39235C35.7123 1.60117 37.171 1.24375 38.7219 2.17333C40.165 3.04165 40.0445 5.24814 38.8417 6.28205C39.2711 8.24824 37.5257 11.0504 34.8151 10.9111C35.1368 13.6251 31.8076 15.1693 29.7896 13.3969C28.1122 11.9255 28.4628 9.47466 30.8524 8.43738ZM29.7048 7.93725C28.8438 8.12573 28.3949 8.55787 28.0112 9.49149C28.2683 7.36847 26.8575 5.33362 24.5332 5.48979C24.7607 1.69676 21.0033 -0.562234 17.6808 1.28413C15.718 -0.396647 13.5236 -0.0553747 12.2036 1.50828C10.9422 3.00328 10.9846 5.52546 13.5337 6.87171C12.8895 9.49149 15.2892 12.0951 18.1103 11.49C18.2725 12.2964 18.8642 12.7285 19.6443 13.0503C18.471 13.1189 17.9898 14.2855 17.9898 14.2855C14.2486 13.3269 12.3181 15.8134 12.2555 18.4231C9.52528 19.2524 8.76129 22.6651 10.852 24.6582C13.0134 26.7254 15.5914 25.8773 16.7156 23.7637C19.1273 24.6804 21.7088 23.1915 21.7761 20.5266C24.4645 20.7797 25.4951 18.6607 25.2447 16.428L24.3925 16.3593C24.0256 18.4332 23.0402 19.3271 20.7906 19.3271C20.693 21.3196 18.5639 23.0488 16.1521 22.5911C15.4757 24.1837 13.49 24.7033 12.1343 23.3712C10.782 22.0385 11.2303 19.5324 13.6165 19.0801C13.5189 16.636 15.8977 15.1215 19.2949 15.2837C20.2602 14.0876 21.0403 13.58 22.4869 13.72L22.5003 13.0247C21.1447 12.8423 19.6167 11.558 19.5036 10.1774C16.6105 10.4076 14.6302 8.74971 14.7285 6.14945C12.8693 5.27843 13.2039 3.37013 13.8057 2.64586C14.8423 1.39453 16.2915 1.49482 17.4627 2.50585C20.7684 1.24173 23.4299 3.85142 23.4299 6.70208C23.4299 6.70208 24.9747 6.67246 25.8424 7.57646C26.9901 8.77596 26.9901 9.8193 27.2627 10.9825C27.5198 12.081 28.0724 13.541 29.4214 14.5937C31.8069 16.4536 35.5037 15.9494 35.8806 12.0265C39.0557 12.3085 41.1431 9.81593 40.0964 6.76737C42.3197 5.18083 41.8775 1.91081 39.7874 0.646015C39.3182 0.336154 38.7875 0.131348 38.2318 0.0456214C37.6761 -0.0401057 37.1084 -0.00472867 36.5676 0.149328C36.0268 0.303384 35.5257 0.572482 35.0985 0.9382C34.6714 1.30392 34.3283 1.75762 34.0928 2.26824C30.839 1.5204 28.1869 4.76484 29.7048 7.93725ZM44.3842 26.9428C44.6702 25.7985 43.1618 25.6289 42.9538 26.683C42.733 27.8111 41.3612 29.7356 40.0614 30.9411L40.5258 31.4419C42.2322 30.1671 44.0173 28.4028 44.3842 26.9428ZM51.9608 8.04092C52.2088 8.03162 52.4435 7.92656 52.6157 7.74782C52.7879 7.56908 52.8841 7.33057 52.8841 7.08239C52.8841 6.83422 52.7879 6.5957 52.6157 6.41696C52.4435 6.23822 52.2088 6.13316 51.9608 6.12387C51.4311 6.12387 51.0056 6.55601 51.0056 7.08239C51.0056 7.61214 51.4311 8.04092 51.9608 8.04092ZM66.0748 8.9153C66.082 8.61865 66.2049 8.33658 66.4173 8.12933C66.6296 7.92207 66.9146 7.80606 67.2113 7.80606C67.5081 7.80606 67.7931 7.92207 68.0054 8.12933C68.2178 8.33658 68.3407 8.61865 68.3479 8.9153C68.3484 9.06486 68.3193 9.21303 68.2624 9.35135C68.2055 9.48967 68.1219 9.61541 68.0164 9.72138C67.9109 9.82736 67.7855 9.91148 67.6474 9.96894C67.5093 10.0264 67.3612 10.0561 67.2117 10.0562C66.5857 10.0562 66.0748 9.54601 66.0748 8.9153ZM64.2735 29.364C56.8759 28.7959 49.5106 29.2604 49.5106 29.2604L50.0296 27.9047C57.1028 27.3911 64.3779 27.9047 64.3779 27.9047L64.2735 29.364Z" fill="#BBBBBB"/>
<path fill-rule="evenodd" clip-rule="evenodd" d="M19.5697 34.5135C19.5697 34.5135 19.9891 35.0735 20.6427 35.7689C20.8641 36.0812 21.1071 36.3047 21.4154 36.5948C22.7718 37.9175 24.7669 38.909 26.8246 39.3054C27.4096 39.4172 27.9299 39.504 28.5088 39.504C29.3865 39.504 30.1949 39.0328 30.7119 38.5704L29.9062 37.6307C29.6463 37.7081 29.1065 37.7081 28.7491 37.7081C25.7651 37.7081 21.9788 35.7554 21.1071 33.4924C21.019 33.2716 20.9153 33.1484 21.0035 32.9397C21.0876 32.7318 21.1987 32.2936 21.2599 31.8904C21.4356 32.0916 21.7957 32.3938 22.2541 32.6893C23.3661 33.4015 25.4791 34.3863 25.8917 34.6501C26.7574 34.4025 27.5959 34.0681 28.3943 33.6519C29.015 33.3302 29.8638 33.0407 30.8452 33.0407C33.0261 33.0407 35.5321 34.2819 37.886 35.4424L39.4948 34.8117C37.4047 33.3396 32.8612 31.2819 30.3322 31.2819C28.8433 31.2819 27.4419 32.3743 26.445 32.3743C25.2192 32.3743 21.7089 30.6612 21.7089 29.2342C21.7089 28.1357 23.9807 27.511 27.6337 27.0621C26.9965 28.002 26.3991 28.9683 25.8432 29.9585L26.7728 30.4755C32.4936 22.1766 38.442 16.7882 43.448 13.5081C45.2681 12.3147 45.6814 11.6166 46.3148 10.3128C47.8657 7.14039 49.3284 4.69898 51.8734 4.69898C53.0595 4.69898 54.0315 5.36874 54.6985 6.19466L56.5382 6.74729L54.675 8.01141L56.5806 8.77204C54.0934 9.47073 50.6968 11.8926 49.319 15.4454C46.6696 15.5854 45.392 17.734 44.5277 19.5346C43.9421 20.7475 43.0132 21.2315 41.6575 22.1516L30.8236 29.7155L32.3153 29.9235L42.3232 23.2078C44.3002 21.8757 45.2358 20.8936 45.711 19.9438C46.6372 18.0847 47.6388 16.7034 49.6023 16.7034C50.5676 16.7034 51.5975 17.116 52.4234 17.8995L54.1816 18.4717L52.2639 19.6449L53.8726 20.6371C49.2765 22.0776 46.4319 25.3732 44.7808 31.6723L45.9964 31.9455C46.6043 29.8622 47.2087 27.9479 48.2844 26.257C50.9432 26.2281 53.639 26.1305 56.281 26.1305C63.3347 26.1305 69.1915 26.4293 72.3511 27.3623L71.2337 25.4183C67.854 24.8394 62.9483 24.5439 56.2817 24.5439C54.049 24.5439 51.7826 24.6247 49.5337 24.6509C50.9869 23.1135 53.0736 21.8164 56.2918 20.8189L54.0099 19.5608L56.5449 18.1499L53.0898 16.8623C52.4853 16.3197 51.7341 15.8223 50.789 15.5813C51.897 12.178 55.6645 10.189 59.2791 8.81713L56.7475 7.77986L59.2986 6.38246L55.369 5.12709C54.3418 3.91817 53.357 3.36823 51.8418 3.36823C48.1948 3.36823 46.6608 6.53728 45.2176 9.34621C44.4536 10.8284 43.9757 11.4524 42.682 12.2978C39.8764 14.1341 36.3042 16.9424 32.8921 20.5409C31.1104 19.2545 27.4661 15.4891 26.482 13.4354C26.0916 13.9194 25.7052 14.9735 25.7052 14.9735C26.0795 15.3659 30.3666 19.7055 31.9619 21.5452C31.8414 21.6784 31.7222 21.8117 31.6018 21.9484C29.9015 22.2863 25.4878 22.7124 23.9854 22.5077L23.1406 24.0068C24.2614 23.8964 28.6501 23.3787 30.4702 23.2717C29.9124 23.9494 29.3714 24.6409 28.848 25.3456C23.2086 25.9891 19.4378 27.1462 19.4378 29.2335C19.4378 29.5782 19.5771 29.9679 19.5771 30.3348C19.5771 31.2092 19.2486 31.5316 18.628 31.9213C18.2248 32.1784 18.1986 32.3541 18.3716 32.5944C19.3072 34.1063 16.4014 34.8568 18.4261 37.5614L20.1426 37.6651C20.1419 37.6657 18.4678 36.6917 19.5697 34.5135ZM17.3451 4.48695L16.7864 5.0591C17.5894 6.20677 21.1455 9.39265 22.9488 10.576L23.6118 9.75344C22.4291 8.3621 19.0676 5.36201 17.3451 4.48695ZM14.8909 20.5456L15.4172 21.1204C16.7729 20.4641 19.3207 18.5787 20.6992 17.1652L20.3196 16.6024C18.7001 17.2789 16.1974 19.1314 14.8909 20.5456Z" fill="#BBBBBB"/>
<path fill-rule="evenodd" clip-rule="evenodd" d="M93.4231 44.0333C93.4234 43.7979 93.3773 43.5649 93.2874 43.3473C93.1976 43.1298 93.0657 42.9322 92.8995 42.7656C92.7332 42.5991 92.5357 42.467 92.3183 42.3768C92.101 42.2866 91.868 42.2402 91.6326 42.2401L88.9812 42.2387C88.7455 42.2392 88.5122 42.286 88.2947 42.3767C88.0771 42.4673 87.8795 42.6 87.7133 42.767C87.547 42.934 87.4152 43.1322 87.3256 43.3501C87.2359 43.5681 87.1901 43.8016 87.1907 44.0373L87.1921 71.7732C87.1915 72.0087 87.2374 72.242 87.3272 72.4597C87.4169 72.6774 87.5487 72.8752 87.7151 73.0419C87.8814 73.2086 88.0789 73.3409 88.2964 73.4311C88.5139 73.5213 88.7471 73.5678 88.9826 73.5678H91.634C91.8695 73.5672 92.1025 73.5203 92.3199 73.4297C92.5373 73.3391 92.7346 73.2066 92.9008 73.0397C93.0669 72.8728 93.1986 72.6748 93.2882 72.4571C93.3778 72.2393 93.4237 72.006 93.4231 71.7705V44.0333V44.0333ZM96.8029 44.771V46.0896C96.8033 46.2196 96.8293 46.3482 96.8795 46.4681C96.9296 46.5879 97.0029 46.6968 97.0951 46.7883C97.1873 46.8799 97.2966 46.9524 97.4168 47.0017C97.537 47.0511 97.6658 47.0762 97.7957 47.0758H116.092C116.926 47.0758 117.603 46.4026 117.603 45.568V43.3346C117.603 42.5012 116.918 41.7453 116.088 41.8268C116.088 41.8268 98.4035 43.5621 97.8327 43.6267C97.1738 43.6994 96.8029 44.2251 96.8029 44.771V44.771ZM81.9915 73.5691C77.4399 73.5691 74.5751 70.118 74.5751 66.2752L74.5711 55.1781H73.2679C73.1029 55.1784 72.9395 55.1461 72.787 55.0831C72.6345 55.0201 72.4959 54.9277 72.3791 54.8111C72.2624 54.6945 72.1698 54.556 72.1067 54.4036C72.0435 54.2511 72.0111 54.0877 72.0112 53.9227V52.0649C72.0112 51.3709 72.5766 50.8136 73.2692 50.8136L74.5711 50.8149L74.5684 43.9915C74.5679 43.762 74.6128 43.5346 74.7003 43.3224C74.7879 43.1102 74.9164 42.9174 75.0786 42.7549C75.2408 42.5925 75.4335 42.4636 75.6455 42.3758C75.8576 42.2879 76.0849 42.2427 76.3144 42.2428H78.9006C79.3645 42.2442 79.8089 42.4296 80.1363 42.7584C80.4636 43.0871 80.6472 43.5323 80.6466 43.9962L80.648 50.8143H84.68C85.3753 50.8143 85.9407 51.373 85.9407 52.067V53.9248C85.9406 54.0896 85.908 54.2528 85.8448 54.405C85.7816 54.5572 85.6889 54.6954 85.5722 54.8118C85.4555 54.9281 85.3169 55.0203 85.1645 55.0831C85.0121 55.1458 84.8488 55.1779 84.684 55.1774H80.648L80.6507 65.4425C80.6507 67.4578 81.8717 68.833 84.056 68.833L84.4228 68.8303C85.1761 68.8303 85.7886 69.4375 85.7886 70.1907V72.2074C85.7887 72.3864 85.7534 72.5637 85.6848 72.729C85.6163 72.8944 85.5157 73.0445 85.3889 73.1709C85.2622 73.2973 85.1117 73.3974 84.9461 73.4655C84.7806 73.5336 84.6032 73.5684 84.4242 73.5678H81.9915V73.5691V73.5691ZM39.3669 50.0153C32.009 50.0153 27.8821 55.7738 27.8821 61.8407C27.8821 68.306 32.3025 73.9999 39.4146 73.9999C44.2827 73.9999 49.0813 71.4346 49.988 67.2216C50.1105 66.6535 49.7275 65.9083 48.9265 65.9056H45.4485C44.8171 65.9056 44.3008 66.2079 43.9898 66.6642C42.995 68.1236 41.5363 68.9003 39.3803 68.9003C36.3338 68.9003 34.2215 66.5 34.0627 63.8378H48.8558C50.2182 63.8378 50.8267 63.0987 50.8267 61.8393C50.8281 55.9233 47.3258 50.0153 39.3669 50.0153V50.0153ZM39.3669 54.7641C42.0829 54.7641 44.4274 56.6967 44.665 59.3117H34.1091C34.3461 56.6967 36.6508 54.7641 39.3669 54.7641ZM106.774 50.0153C99.4173 50.0153 95.2904 55.7738 95.2904 61.8407C95.2904 68.306 99.7114 73.9999 106.823 73.9999C111.691 73.9999 116.49 71.4346 117.397 67.2216C117.519 66.6535 117.136 65.9083 116.336 65.9056H112.857C112.226 65.9056 111.71 66.2079 111.398 66.6642C110.404 68.1236 108.945 68.9003 106.789 68.9003C103.743 68.9003 101.631 66.5 101.471 63.8378H116.265C117.627 63.8378 118.236 63.0987 118.236 61.8393C118.236 55.9233 114.734 50.0153 106.774 50.0153V50.0153ZM106.774 54.7641C109.492 54.7641 111.836 56.6967 112.074 59.3117H101.517C101.754 56.6967 104.058 54.7641 106.774 54.7641Z" fill="#BBBBBB"/>
<path fill-rule="evenodd" clip-rule="evenodd" d="M69.5953 42.5517H21.6778C21.419 42.5517 21.1627 42.6028 20.9236 42.7019C20.6845 42.8011 20.4673 42.9464 20.2844 43.1296C20.1016 43.3128 19.9566 43.5302 19.8579 43.7695C19.7591 44.0087 19.7085 44.2651 19.709 44.524L19.8739 63.3437C19.8739 63.3437 9.54821 44.6936 9.00972 43.7418C8.5042 42.8465 7.41711 42.022 5.91269 42.022H1.97224C1.71313 42.022 1.45656 42.073 1.21719 42.1722C0.977816 42.2714 0.760338 42.4168 0.577181 42.6001C0.394023 42.7834 0.248777 43.001 0.149742 43.2404C0.0507064 43.4798 -0.000176409 43.7364 4.59512e-07 43.9956L0.00201967 71.5948C0.00184282 71.8538 0.0526814 72.1103 0.151633 72.3497C0.250584 72.589 0.395709 72.8066 0.578724 72.9898C0.761739 73.1731 0.979058 73.3185 1.21827 73.4178C1.45749 73.5171 1.71392 73.5682 1.97292 73.5684H4.50048C5.02397 73.5672 5.52554 73.3581 5.89488 72.9871C6.26422 72.6161 6.4711 72.1136 6.47003 71.5901L6.31118 52.2433C6.31118 52.2433 16.7365 71.0799 17.1827 71.8217C17.7838 72.8246 18.8016 73.5691 20.2771 73.5691H23.8971C24.1561 73.5689 24.4125 73.5177 24.6517 73.4184C24.8908 73.3192 25.1081 73.1737 25.2911 72.9905C25.474 72.8072 25.6191 72.5897 25.718 72.3503C25.8168 72.111 25.8676 71.8545 25.8673 71.5955L25.866 47.2292L69.5979 47.2306C69.7748 47.2311 69.95 47.1968 70.1135 47.1295C70.2771 47.0622 70.4258 46.9634 70.5511 46.8386C70.6764 46.7138 70.7758 46.5655 70.8437 46.4022C70.9117 46.2389 70.9467 46.0639 70.9469 45.887V43.8966C70.9458 43.5391 70.8028 43.1966 70.5494 42.9444C70.296 42.6923 69.9528 42.551 69.5953 42.5517Z" fill="#BBBBBB"/>
<path fill-rule="evenodd" clip-rule="evenodd" d="M61.8403 54.534C63.9242 54.534 65.4819 55.29 66.0432 56.5951C66.3125 57.2225 66.8348 57.343 67.5524 57.343H70.4172C70.8904 57.343 71.4349 56.9357 71.4349 56.3165C71.4349 52.9865 67.4635 50.0127 61.8362 50.0127C56.0185 50.0127 52.1971 52.7839 52.1971 57.2003C52.1971 60.578 54.8667 62.5879 58.1482 63.4462C59.6439 63.8366 62.1977 64.468 63.4409 64.7951C64.7818 65.1458 65.9806 65.5564 65.9806 66.7041C65.9806 68.5168 64.0703 69.1334 61.9836 69.1334C60.0067 69.1334 58.0378 68.2509 57.4731 66.8407C57.1466 66.0242 56.5738 65.9057 55.7055 65.9057H52.7915C52.2833 65.9057 51.6984 66.3419 51.6984 67.0049V67.3812C51.6984 70.6048 56.0232 73.9812 61.989 73.9812C66.2196 73.9812 72.1134 72.2223 72.1134 66.5492C72.1134 63.2637 69.915 60.9893 66.3381 60.0799C64.9393 59.7251 61.5764 58.8703 60.8447 58.6811C59.5409 58.3432 58.3239 57.9185 58.3239 56.8011C58.3246 55.1082 59.8889 54.534 61.8403 54.534Z" fill="#BBBBBB"/>
<path fill-rule="evenodd" clip-rule="evenodd" d="M93.4231 44.0333C93.4233 43.7979 93.3772 43.5649 93.2874 43.3473C93.1975 43.1298 93.0657 42.9322 92.8994 42.7656C92.7331 42.5991 92.5357 42.467 92.3183 42.3768C92.1009 42.2866 91.8679 42.2402 91.6326 42.2401L88.9812 42.2387C88.7455 42.2392 88.5122 42.286 88.2946 42.3767C88.077 42.4673 87.8795 42.6 87.7132 42.767C87.5469 42.934 87.4152 43.1322 87.3255 43.3501C87.2359 43.5681 87.19 43.8016 87.1906 44.0373L87.192 71.7732C87.1915 72.0087 87.2374 72.242 87.3271 72.4597C87.4169 72.6774 87.5487 72.8752 87.715 73.0419C87.8813 73.2086 88.0789 73.3409 88.2964 73.4311C88.5139 73.5213 88.747 73.5678 88.9825 73.5678H91.6339C91.8694 73.5672 92.1025 73.5203 92.3198 73.4297C92.5372 73.3391 92.7346 73.2066 92.9007 73.0397C93.0668 72.8728 93.1985 72.6748 93.2881 72.4571C93.3777 72.2393 93.4236 72.006 93.4231 71.7705V44.0333V44.0333ZM96.8028 44.771V46.0896C96.8032 46.2196 96.8293 46.3482 96.8794 46.4681C96.9296 46.5879 97.0028 46.6968 97.095 46.7883C97.1872 46.8799 97.2965 46.9524 97.4167 47.0017C97.537 47.0511 97.6657 47.0762 97.7957 47.0758H116.092C116.926 47.0758 117.603 46.4026 117.603 45.568V43.3346C117.603 42.5012 116.918 41.7453 116.088 41.8268C116.088 41.8268 98.4035 43.5621 97.8327 43.6267C97.1737 43.6994 96.8028 44.2251 96.8028 44.771V44.771ZM81.9915 73.5691C77.4398 73.5691 74.575 70.118 74.575 66.2752L74.571 55.1781H73.2678C73.1028 55.1784 72.9394 55.1461 72.7869 55.0831C72.6344 55.0201 72.4958 54.9277 72.3791 54.8111C72.2623 54.6945 72.1698 54.556 72.1066 54.4036C72.0435 54.2511 72.011 54.0877 72.0111 53.9227V52.0649C72.0111 51.3709 72.5765 50.8136 73.2692 50.8136L74.571 50.8149L74.5683 43.9915C74.5679 43.762 74.6127 43.5346 74.7003 43.3224C74.7878 43.1102 74.9164 42.9174 75.0786 42.7549C75.2408 42.5925 75.4334 42.4636 75.6454 42.3758C75.8575 42.2879 76.0848 42.2427 76.3144 42.2428H78.9005C79.3644 42.2442 79.8088 42.4296 80.1362 42.7584C80.4636 43.0871 80.6471 43.5323 80.6466 43.9962L80.6479 50.8143H84.6799C85.3752 50.8143 85.9407 51.373 85.9407 52.067V53.9248C85.9406 54.0896 85.908 54.2528 85.8447 54.405C85.7815 54.5572 85.6889 54.6954 85.5721 54.8118C85.4554 54.9281 85.3169 55.0203 85.1645 55.0831C85.0121 55.1458 84.8488 55.1779 84.684 55.1774H80.6479L80.6506 65.4425C80.6506 67.4578 81.8717 68.833 84.0559 68.833L84.4228 68.8303C85.176 68.8303 85.7885 69.4375 85.7885 70.1907V72.2074C85.7886 72.3864 85.7534 72.5637 85.6848 72.729C85.6162 72.8944 85.5156 73.0445 85.3889 73.1709C85.2621 73.2973 85.1116 73.3974 84.9461 73.4655C84.7805 73.5336 84.6031 73.5684 84.4241 73.5678H81.9915V73.5691V73.5691ZM50.828 61.8393C50.828 55.9233 47.3258 50.0153 39.3675 50.0153C32.0096 50.0153 27.8827 55.7738 27.8827 61.8407C27.8827 68.306 32.3031 73.9999 39.4153 73.9999C44.2833 73.9999 49.0819 71.4346 49.9886 67.2216C50.1111 66.6535 49.7281 65.9083 48.9271 65.9056H45.4491C44.8177 65.9056 44.3014 66.2079 43.9905 66.6642C42.9956 68.1236 41.5369 68.9003 39.3809 68.9003C36.3344 68.9003 34.2221 66.5 34.0633 63.8378H48.8564C50.2188 63.8378 50.828 63.0987 50.828 61.8393V61.8393ZM34.1091 59.3111C34.3467 56.696 36.6508 54.7635 39.3675 54.7635C42.0835 54.7635 44.428 56.696 44.6656 59.3111H34.1091ZM118.236 61.8393C118.236 55.9233 114.734 50.0153 106.775 50.0153C99.4179 50.0153 95.291 55.7738 95.291 61.8407C95.291 68.306 99.712 73.9999 106.824 73.9999C111.692 73.9999 116.49 71.4346 117.398 67.2216C117.52 66.6535 117.137 65.9083 116.337 65.9056H112.858C112.227 65.9056 111.71 66.2079 111.399 66.6642C110.405 68.1236 108.945 68.9003 106.789 68.9003C103.743 68.9003 101.632 66.5 101.472 63.8378H116.266C117.627 63.8378 118.236 63.0987 118.236 61.8393V61.8393ZM101.517 59.3111C101.754 56.696 104.058 54.7635 106.775 54.7635C109.492 54.7635 111.837 56.696 112.075 59.3111H101.517Z" fill="#BBBBBB"/>
<path fill-rule="evenodd" clip-rule="evenodd" d="M69.5953 42.5517H21.6778C21.419 42.5517 21.1627 42.6028 20.9236 42.7019C20.6845 42.8011 20.4673 42.9464 20.2844 43.1296C20.1016 43.3128 19.9566 43.5302 19.8579 43.7695C19.7591 44.0087 19.7085 44.2651 19.709 44.524L19.8739 63.3437C19.8739 63.3437 9.54821 44.6936 9.00971 43.7418C8.5042 42.8465 7.41711 42.022 5.91269 42.022H1.97224C1.71313 42.022 1.45656 42.073 1.21719 42.1722C0.977816 42.2714 0.760338 42.4168 0.577181 42.6001C0.394023 42.7834 0.248777 43.001 0.149742 43.2404C0.0507064 43.4798 -0.000176409 43.7364 4.59512e-07 43.9956L0.00201967 71.5948C0.00184282 71.8538 0.0526814 72.1103 0.151633 72.3497C0.250584 72.589 0.395709 72.8066 0.578724 72.9898C0.761739 73.1731 0.979058 73.3185 1.21827 73.4178C1.45749 73.5171 1.71392 73.5682 1.97292 73.5684H4.50048C5.02397 73.5672 5.52554 73.3581 5.89488 72.9871C6.26422 72.6161 6.4711 72.1136 6.47003 71.5901L6.31118 52.2433C6.31118 52.2433 16.7365 71.0799 17.1827 71.8217C17.7838 72.8246 18.8016 73.5691 20.2771 73.5691H23.8971C24.1561 73.5689 24.4125 73.5177 24.6517 73.4184C24.8908 73.3192 25.1081 73.1737 25.2911 72.9905C25.474 72.8072 25.6191 72.5897 25.718 72.3503C25.8168 72.111 25.8676 71.8545 25.8673 71.5955L25.866 47.2292L69.5979 47.2306C69.7748 47.2311 69.95 47.1968 70.1135 47.1295C70.2771 47.0622 70.4258 46.9634 70.5511 46.8386C70.6764 46.7138 70.7758 46.5655 70.8437 46.4022C70.9116 46.2389 70.9467 46.0639 70.9469 45.887V43.8966C70.9458 43.5391 70.8028 43.1966 70.5494 42.9444C70.296 42.6923 69.9528 42.551 69.5953 42.5517V42.5517Z" fill="#BBBBBB"/>
<path fill-rule="evenodd" clip-rule="evenodd" d="M61.8403 54.534C63.9242 54.534 65.4819 55.29 66.0432 56.5951C66.3125 57.2225 66.8348 57.343 67.5524 57.343H70.4172C70.8904 57.343 71.4349 56.9357 71.4349 56.3165C71.4349 52.9865 67.4635 50.0127 61.8362 50.0127C56.0185 50.0127 52.1971 52.7839 52.1971 57.2003C52.1971 60.578 54.8667 62.5879 58.1482 63.4462C59.6439 63.8366 62.1977 64.468 63.4409 64.7951C64.7818 65.1458 65.9806 65.5564 65.9806 66.7041C65.9806 68.5168 64.0703 69.1334 61.9836 69.1334C60.0067 69.1334 58.0378 68.2509 57.4731 66.8407C57.1466 66.0242 56.5738 65.9057 55.7055 65.9057H52.7915C52.2833 65.9057 51.6984 66.3419 51.6984 67.0049V67.3812C51.6984 70.6048 56.0232 73.9812 61.989 73.9812C66.2196 73.9812 72.1134 72.2223 72.1134 66.5492C72.1134 63.2637 69.915 60.9893 66.3381 60.0799C64.9393 59.7251 61.5764 58.8703 60.8447 58.6811C59.5409 58.3432 58.3239 57.9185 58.3239 56.8011C58.3246 55.1082 59.8889 54.534 61.8403 54.534ZM120.291 72.4034H119.642V69.3662H120.777C121.56 69.3662 122.023 69.5897 122.023 70.2837C122.023 70.8424 121.695 71.045 121.292 71.0753L122.068 72.4034H121.298L120.598 71.1271H120.291V72.4034ZM120.866 70.6129C121.158 70.6129 121.329 70.5523 121.329 70.2157C121.329 69.9027 120.992 69.8805 120.748 69.8805H120.291V70.6129H120.866ZM120.761 73.7086C119.261 73.7086 117.925 72.6713 117.925 70.8875C117.925 69.1051 119.261 68.0678 120.761 68.0678C122.254 68.0678 123.591 69.1051 123.591 70.8875C123.591 72.6713 122.254 73.7086 120.761 73.7086ZM120.761 68.7234C119.642 68.7234 118.738 69.5897 118.738 70.8875C118.738 72.1866 119.642 73.061 120.761 73.0529V73.061C121.852 73.061 122.776 72.1866 122.776 70.8875C122.776 69.5897 121.852 68.7234 120.761 68.7234Z" fill="#BBBBBB"/>
</svg>
