<svg width="169" height="27" viewBox="0 0 169 27" fill="none" xmlns="http://www.w3.org/2000/svg">
<path d="M23.4571 5.15656C24.0792 5.97161 24.6058 6.8571 25.0263 7.79525L13.098 16.7066L8.11279 13.5396V9.72945L13.098 12.8965L23.4571 5.15656Z" fill="#BBBBBB"/>
<path d="M3.02526 13.2707C3.02526 13.0997 3.02938 12.9299 3.0376 12.761L0.0164537 12.611C0.0061707 12.8298 3.65092e-06 13.0508 3.65092e-06 13.2737C-0.00128176 15.0161 0.336872 16.7414 0.995075 18.3509C1.65327 19.9605 2.61856 21.4225 3.83556 22.653L5.97854 20.4822C5.04174 19.5367 4.29856 18.4127 3.79174 17.1751C3.28491 15.9375 3.02443 14.6106 3.02526 13.2707Z" fill="#BBBBBB"/>
<path d="M13.0956 3.06512C13.2642 3.06512 13.4318 3.07137 13.5983 3.07971L13.7495 0.016862C13.5329 0.00644061 13.3149 0.00123055 13.0956 0.00123055C11.3756 -0.000895164 9.6722 0.341315 8.08313 1.00821C6.49405 1.67511 5.05061 2.65356 3.83569 3.88737L5.97867 6.05919C6.91174 5.10947 8.02084 4.35602 9.24222 3.84219C10.4636 3.32837 11.7731 3.06427 13.0956 3.06512Z" fill="#BBBBBB"/>
<path d="M13.0957 23.4765C12.9271 23.4765 12.7594 23.4765 12.5918 23.4629L12.4407 26.5247C12.658 26.5358 12.8763 26.5414 13.0957 26.5414C14.8149 26.5432 16.5175 26.2008 18.1057 25.5337C19.694 24.8666 21.1365 23.888 22.3504 22.6542L20.2116 20.4835C19.2783 21.4327 18.1693 22.1857 16.9482 22.6993C15.7271 23.213 14.4178 23.4771 13.0957 23.4765Z" fill="#BBBBBB"/>
<path d="M18.7716 4.84597L21.3176 2.94406C18.9905 1.0343 16.0856 -0.00530129 13.0912 2.03295e-05V3.06495C15.1189 3.0624 17.0995 3.68343 18.7716 4.84597Z" fill="#BBBBBB"/>
<path d="M26.1902 13.2707C26.1918 12.4734 26.123 11.6775 25.9845 10.8926L23.166 12.9977C23.166 13.0884 23.166 13.179 23.166 13.2707C23.1667 14.6967 22.8717 16.1069 22.3003 17.4099C21.7288 18.7129 20.8935 19.8797 19.8486 20.8346L21.8816 23.1117C23.24 21.8688 24.3256 20.3505 25.0678 18.6553C25.8101 16.9599 26.1925 15.1254 26.1902 13.2707Z" fill="#BBBBBB"/>
<path d="M13.0955 23.4763C11.6884 23.4768 10.2969 23.1778 9.01097 22.5987C7.72515 22.0196 6.57365 21.1731 5.63106 20.1144L3.38525 22.1736C4.61146 23.5506 6.10954 24.6509 7.78235 25.4033C9.45516 26.1557 11.2653 26.5434 13.0955 26.5412V23.4763Z" fill="#BBBBBB"/>
<path d="M6.34257 5.70676L4.31065 3.42969C2.95182 4.67231 1.86589 6.19051 1.12327 7.88583C0.380672 9.58114 -0.0020246 11.4157 8.05483e-06 13.2706H3.02527C3.02465 11.8447 3.31963 10.4345 3.89108 9.13152C4.46255 7.82855 5.29774 6.66175 6.34257 5.70676Z" fill="#BBBBBB"/>
<path d="M75.5695 7.58918L79.3163 4.8233H66.7765V21.4438H79.3163V18.678H70.3546V14.4206H77.9993V11.6547H70.3546V7.58918H75.5695Z" fill="#BBBBBB"/>
<path d="M58.3385 11.2982H53.9849V7.58819H60.933L64.6776 4.8139H50.4089V21.4344H57.878C62.0655 21.4344 64.4687 19.5328 64.4687 16.2162C64.4687 13.0434 62.292 11.2982 58.3385 11.2982ZM57.7169 18.6677H53.9849V14.0624H57.7169C59.9818 14.0624 61.0437 14.8341 61.0437 16.3651C61.0437 17.8959 59.9138 18.6677 57.7169 18.6677Z" fill="#BBBBBB"/>
<path d="M88.534 4.82104H81.7081V21.4415H85.2858V16.7332H88.534C92.8889 16.7332 95.5829 14.4371 95.5829 10.7683C95.5829 7.09952 92.8889 4.82104 88.534 4.82104ZM88.4585 13.9652H85.2858V7.58903H88.4585C90.7492 7.58903 92.0134 8.72197 92.0134 10.7784C92.0134 12.8348 90.7492 13.9652 88.4585 13.9652Z" fill="#BBBBBB"/>
<path d="M45.0401 17.5192C44.1159 18.0206 43.0804 18.2803 42.0295 18.2741C38.8841 18.2741 36.6022 16.0241 36.6022 12.9258C36.6022 9.82738 38.8841 7.57246 42.0295 7.57246C43.1639 7.55316 44.2746 7.8978 45.1996 8.5561L47.7022 6.70934L47.533 6.58885C46.0731 5.30279 44.1225 4.62164 41.8897 4.62164C39.468 4.62164 37.2721 5.43803 35.7042 6.92328C34.9114 7.68801 34.2845 8.60827 33.8623 9.62663C33.4402 10.645 33.2319 11.7395 33.2507 12.8421C33.2339 13.9559 33.4412 15.0616 33.8602 16.0934C34.2793 17.1251 34.9014 18.0616 35.6895 18.8471C37.2647 20.3913 39.4557 21.2421 41.8603 21.2421C44.3727 21.2421 46.5687 20.3642 48.0556 18.7659L45.8155 17.0938L45.0401 17.5192Z" fill="#BBBBBB"/>
<path d="M109.769 11.2982H105.418V7.58819H114.77V4.8139H101.839V21.4344H109.299C113.486 21.4344 115.889 19.5328 115.889 16.2162C115.899 13.0434 113.723 11.2982 109.769 11.2982ZM109.148 18.6677H105.418V14.0624H109.148C111.413 14.0624 112.474 14.8341 112.474 16.3651C112.474 17.8959 111.354 18.6677 109.148 18.6677Z" fill="#BBBBBB"/>
<path d="M156.565 21.4106H152.938V4.79004H156.565V11.7708H158.539L163.87 4.79004H167.981L161.657 12.6966L169 21.4106H164.187L158.79 14.8739H156.565V21.4106Z" fill="#BBBBBB"/>
<path d="M129.067 18.2521H121.394L120.093 21.4796H116.233L123.43 4.85907H127.289L134.369 21.4796H130.367L129.067 18.2521ZM127.865 15.2406L125.253 8.78549L122.626 15.2406H127.865Z" fill="#BBBBBB"/>
<path d="M139.252 4.85907V11.7995H146.758V4.85907H150.498V21.4796H146.758V14.9305H139.252V21.4796H135.512V4.85907H139.252Z" fill="#BBBBBB"/>
</svg>
