<svg width="115" height="41" viewBox="0 0 115 41" fill="none" xmlns="http://www.w3.org/2000/svg">
<path d="M80.5743 0.743002H103.029C105.093 0.743002 106.992 1.15578 108.643 1.98134C110.294 2.80689 111.615 3.96267 112.606 5.44867C113.597 6.93467 114.009 8.58579 114.009 10.4846C114.009 12.631 113.431 14.5298 112.193 16.0983C110.955 17.6669 109.469 18.7401 107.57 19.4006V19.6482C109.799 20.061 111.615 21.1342 112.936 22.8679C114.34 24.6016 115 26.6655 115 28.977C115 32.5269 113.844 35.2513 111.615 37.15C109.386 39.0488 106.497 39.9569 102.947 39.9569H80.4917V0.743002H80.5743ZM100.718 16.346C102.204 16.346 103.442 15.9332 104.268 15.1902C105.093 14.4472 105.506 13.374 105.506 12.2182C105.506 10.7322 105.093 9.65901 104.35 8.91601C103.607 8.17301 102.452 7.76023 101.131 7.76023H88.9124V16.4286L100.718 16.346ZM101.709 32.9397C103.195 32.9397 104.35 32.5269 105.258 31.7014C106.167 30.8758 106.662 29.6375 106.662 28.0689C106.662 26.6655 106.167 25.5097 105.258 24.6016C104.35 23.6935 103.029 23.2807 101.296 23.2807H88.995V32.8571L101.709 32.9397ZM0.0825575 0.743002H20.4738C24.4365 0.743002 27.4085 1.73367 29.4724 3.79756C31.5363 5.77889 32.6095 8.50323 32.6095 11.888C32.6095 14.5298 31.949 16.8413 30.7107 18.8227C29.4724 20.804 27.6561 22.1249 25.4271 23.033L34.4257 40.0395H28.3991L19.8959 23.776H5.44867V39.9569H0L0.0825575 0.743002ZM20.1436 18.9878C22.29 18.9878 23.9411 18.3274 25.262 17.089C26.5004 15.8507 27.1608 14.117 27.1608 11.888C27.1608 9.82412 26.5829 8.25556 25.4271 7.09979C24.2714 5.94401 22.5377 5.44867 20.2261 5.44867H5.44867V18.9878H20.1436ZM54.7344 18.9878H74.6303V39.9569H69.4293L68.7688 35.5815C67.0352 37.3151 65.1364 38.5535 62.99 39.379C60.8435 40.2046 58.3668 40.6174 55.4774 40.6174C49.2857 40.6174 44.4975 38.9663 41.2778 35.5815C37.9756 32.2793 36.3245 27.1608 36.3245 20.3087C36.3245 13.5391 38.0581 8.42067 41.5255 5.03589C44.9928 1.65111 49.9462 0 56.3855 0C59.8528 0 62.9074 0.495335 65.7143 1.56856C68.4386 2.64178 70.6676 4.21034 72.3187 6.27423C73.9699 8.33812 74.7128 10.9799 74.7128 14.0345H67.2003C67.2003 11.5578 66.2096 9.65901 64.1457 8.25556C62.1644 6.85212 59.6052 6.19167 56.6332 6.19167C52.3403 6.19167 49.2032 7.34745 47.0567 9.57646C44.9928 11.8055 43.9196 15.1902 43.9196 19.7308V20.8866C43.9196 25.5922 44.9928 28.977 46.8916 31.206C48.8729 33.3525 51.8449 34.4257 55.8902 34.4257C59.4401 34.4257 62.2469 33.6001 64.3108 31.949C66.3747 30.2979 67.3654 27.9864 67.3654 25.0144V24.9318H54.7344V18.9878Z" fill="white"/>
</svg>
